<svg xmlns="http://www.w3.org/2000/svg" viewBox="0 0 64 64" fill="none">
  <defs>
    <linearGradient id="v" x1="12" y1="12" x2="52" y2="52" gradientUnits="userSpaceOnUse">
      <stop offset="0%" stop-color="#fff0a6" />
      <stop offset="42%" stop-color="#f3c43c" />
      <stop offset="100%" stop-color="#af7300" />
    </linearGradient>
    <linearGradient id="cannon" x1="14" y1="25" x2="48" y2="37" gradientUnits="userSpaceOnUse">
      <stop offset="0%" stop-color="#ffd95a" />
      <stop offset="100%" stop-color="#d09100" />
    </linearGradient>
  </defs>
  <path
    d="M13 14 31 18.5 32 22l1-3.5L51 14 40 43 32 41.3 24 43 13 14Z"
    fill="url(#v)"
    stroke="#fff7db"
    stroke-width="1.2"
    stroke-linejoin="round"
  />
  <g transform="translate(0 1) rotate(-18 32 32)">
    <rect x="13" y="27" width="31" height="10" rx="5" fill="url(#cannon)" stroke="#171717" stroke-width="1.2" />
    <rect x="41" y="25.5" width="7.5" height="13" rx="3" fill="#f7e1b2" stroke="#171717" stroke-width="1.1" />
    <path d="M48.2 27.1 54 31.9 48.2 36.7Z" fill="#121212" stroke="#171717" stroke-width="1.1" stroke-linejoin="round" />
    <circle cx="18" cy="38.4" r="5.8" fill="#f7f3ea" stroke="#171717" stroke-width="1.2" />
    <circle cx="18" cy="38.4" r="2.9" fill="#6a4711" />
    <circle cx="31.1" cy="38.4" r="5.8" fill="#f7f3ea" stroke="#171717" stroke-width="1.2" />
    <circle cx="31.1" cy="38.4" r="2.9" fill="#6a4711" />
  </g>
  <path
    d="M10.8 29.7c2 0 3 1 3 3m-6.5-2.1c2 0 3 1 3 3m-4.1 1.7c2 0 3 1 3 3"
    stroke="#f3c43c"
    stroke-width="2"
    stroke-linecap="round"
  />
</svg>
